<?xml version="1.0" encoding="utf-8"?>
<!-- Generator: Adobe Illustrator 16.0.0, SVG Export Plug-In . SVG Version: 6.00 Build 0)  -->
<!DOCTYPE svg PUBLIC "-//W3C//DTD SVG 1.1//EN" "http://www.w3.org/Graphics/SVG/1.1/DTD/svg11.dtd">
<svg version="1.1" id="logo_1_" xmlns="http://www.w3.org/2000/svg" xmlns:xlink="http://www.w3.org/1999/xlink" x="0px" y="0px"
	 width="750.105px" height="750.105px" viewBox="0 0 750.105 750.105" enable-background="new 0 0 750.105 750.105"
	 xml:space="preserve">
<g id="fond">
	<g>
		<circle fill="#308991" cx="375.049" cy="375.05" r="375.052"/>
	</g>
</g>
<g id="pieds">
	<g>
		<path fill-rule="evenodd" clip-rule="evenodd" fill="#FFFFFF" d="M541.054,461.127c2.217-7.021,1.012-103.55,0-129.116
			c-1.008-25.566-16.024-71.7-36.888-73.78c-20.864-2.081-61.019-8.745-86.078,18.444c-25.06,27.191-31.219,39.863-24.594,86.078
			c6.628,46.218,19.438,111.98,36.891,116.82C447.838,484.413,538.84,468.15,541.054,461.127z M553.354,498.017
			c-5.805-6.447-100.357,14.768-104.523,18.446s0.295,12.44,0,24.594c-0.678,27.714,12.548,46.525,18.445,55.335
			c5.897,8.812,30.857,15.691,55.335,12.297c24.477-3.395,32.91-21.106,36.891-43.039
			C563.481,543.72,559.156,504.466,553.354,498.017z M344.307,350.456c-8.667-4.032-33.054-6.973-61.483-6.148
			c-28.431,0.825-47.42-2.115-55.335,0c-5.337,7.273-15.78,43.404-18.446,98.375c-1.795,37.021-14.217,69.905,24.595,98.375
			c38.81,28.47,90.231,23.205,98.374,12.297c8.142-10.909,18.43-17.917,18.445-61.484
			C350.471,448.302,343.948,360.293,344.307,350.456z M301.27,209.043c-55.259-0.609-59.328,48.135-61.485,61.484
			c-2.157,13.349-4.29,33.993,0,36.891c4.292,2.895,110.013,16.539,110.671,12.296c0.66-4.242,1.276-43.927,0-61.483
			C349.181,240.673,356.527,209.652,301.27,209.043z"/>
	</g>
</g>
</svg>
